<svg width="18" height="24" viewBox="0 0 18 24" fill="none" xmlns="http://www.w3.org/2000/svg">
<g clip-path="url(#clip0_18_21)">
<path d="M9.42793 11.4C8.83734 11.388 8.26343 11.2019 7.77817 10.865C7.29291 10.5282 6.9179 10.0555 6.70017 9.50641C6.48243 8.95728 6.43165 8.35609 6.5542 7.77822C6.67676 7.20036 6.96719 6.67153 7.38907 6.25805C7.81095 5.84457 8.34552 5.56485 8.92574 5.45395C9.50595 5.34306 10.106 5.40592 10.6506 5.63467C11.1953 5.86341 11.6602 6.24786 11.9873 6.7398C12.3143 7.23174 12.4888 7.80927 12.4889 8.39999C12.4805 9.20362 12.1533 9.97102 11.5794 10.5335C11.0054 11.0961 10.2316 11.4077 9.42793 11.4ZM9.42793 -6.62685e-06C8.31343 -0.0118846 7.20751 0.196036 6.17341 0.611866C5.13932 1.0277 4.19733 1.64328 3.40131 2.42342C2.60528 3.20356 1.97084 4.13296 1.53426 5.15846C1.09768 6.18397 0.867515 7.28547 0.856934 8.39999C0.856934 14.7 9.42793 24 9.42793 24C9.42793 24 17.9989 14.7 17.9989 8.39999C17.9884 7.28547 17.7582 6.18397 17.3216 5.15846C16.885 4.13296 16.2506 3.20356 15.4546 2.42342C14.6585 1.64328 13.7166 1.0277 12.6825 0.611866C11.6484 0.196036 10.5424 -0.0118846 9.42793 -6.62685e-06Z" fill="#00754A"/>
</g>
<defs>
<clipPath id="clip0_18_21">
<rect width="17.143" height="24" fill="white" transform="translate(0.856934)"/>
</clipPath>
</defs>
</svg>
