<svg width="25" height="24" viewBox="0 0 25 24" fill="none" xmlns="http://www.w3.org/2000/svg">
<g clip-path="url(#clip0_18_24)">
<path d="M16.7689 15.527C15.4727 16.8958 13.7398 17.7699 11.8686 17.999C9.99745 18.228 8.10493 17.7976 6.51683 16.7819C4.92872 15.7661 3.74436 14.2286 3.16758 12.4338C2.59081 10.639 2.6577 8.69934 3.35675 6.94858C4.05579 5.19781 5.34327 3.74548 6.99758 2.84155C8.65189 1.93761 10.5696 1.63862 12.4205 1.99602C14.2715 2.35343 15.94 3.34488 17.1389 4.79973C18.3377 6.25458 18.9919 8.08183 18.9889 9.96699C18.9889 10.4948 18.9373 11.0213 18.8349 11.539C18.8096 11.6546 18.8075 11.774 18.829 11.8904C18.8504 12.0068 18.8948 12.1177 18.9597 12.2167C19.0245 12.3157 19.1085 12.4007 19.2066 12.4668C19.3048 12.5329 19.4151 12.5787 19.5312 12.6016C19.6473 12.6245 19.7668 12.624 19.8827 12.6001C19.9986 12.5762 20.1086 12.5295 20.2061 12.4625C20.3037 12.3956 20.3869 12.3099 20.451 12.2104C20.515 12.1108 20.5585 11.9995 20.5789 11.883C20.8633 10.4437 20.8241 8.95915 20.4641 7.53687C20.1041 6.11459 19.4323 4.79018 18.4973 3.65956C17.5623 2.52893 16.3876 1.6204 15.0582 0.999738C13.7288 0.37908 12.278 0.0618404 10.8109 0.0709933C9.17121 0.0764799 7.55856 0.489152 6.11777 1.27195C4.67699 2.05474 3.4532 3.18314 2.55631 4.55581C1.65942 5.92848 1.11752 7.50242 0.97928 9.13629C0.841039 10.7702 1.11079 12.4128 1.7643 13.9166C2.4178 15.4205 3.43461 16.7384 4.72339 17.7522C6.01217 18.7659 7.53256 19.4437 9.14803 19.7246C10.7635 20.0055 12.4234 19.8807 13.9788 19.3615C15.5341 18.8424 16.9361 17.945 18.0589 16.75C18.2143 16.5779 18.2961 16.3519 18.2871 16.1203C18.278 15.8886 18.1787 15.6697 18.0104 15.5103C17.8421 15.3508 17.6182 15.2636 17.3864 15.2671C17.1546 15.2706 16.9333 15.3646 16.7699 15.529L16.7689 15.527ZM18.2469 18.608L23.3419 23.67C23.4246 23.7523 23.5228 23.8174 23.6307 23.8618C23.7386 23.9061 23.8542 23.9288 23.9709 23.9285C24.0876 23.9282 24.203 23.9048 24.3107 23.8599C24.4184 23.8149 24.5161 23.7492 24.5984 23.6665C24.6807 23.5838 24.7459 23.4856 24.7902 23.3777C24.8346 23.2698 24.8572 23.1542 24.8569 23.0375C24.8566 22.9208 24.8333 22.8054 24.7883 22.6977C24.7434 22.59 24.6776 22.4923 24.5949 22.41L19.4999 17.349C19.3326 17.1828 19.1061 17.09 18.8702 17.0908C18.6344 17.0917 18.4086 17.1861 18.2424 17.3535C18.0762 17.5208 17.9834 17.7473 17.9842 17.9832C17.9851 18.219 18.0796 18.4448 18.2469 18.611V18.608Z" fill="#00754A"/>
</g>
<defs>
<clipPath id="clip0_18_24">
<rect width="24" height="23.858" fill="white" transform="translate(0.856934 0.0709839)"/>
</clipPath>
</defs>
</svg>
