<svg width="72" height="72" viewBox="0 0 72 72" fill="none" xmlns="http://www.w3.org/2000/svg">
<g clip-path="url(#clip0_1_70)">
<path d="M36.0001 72C55.8824 72 72.0003 55.8822 72.0003 35.9998C72.0003 16.1175 55.8824 -0.000366211 36.0001 -0.000366211C16.1177 -0.000366211 -0.00012207 16.1175 -0.00012207 35.9998C-0.00012207 55.8822 16.1177 72 36.0001 72Z" fill="white"/>
<path d="M39.6209 15.5644C37.225 15.1477 34.7751 15.1477 32.3792 15.5644C32.1994 15.5956 32.1292 15.4198 32.2678 15.3163C32.3928 15.2245 36.0003 12.4783 36.0003 12.4783C36.0003 12.4783 39.6073 15.2245 39.7303 15.3163C39.8709 15.4198 39.8006 15.5956 39.6209 15.5644ZM33.387 33.3906C33.3327 33.4111 33.2833 33.4427 33.2419 33.4834C33.2006 33.5241 33.1681 33.573 33.1468 33.627C33.9027 34.209 34.4241 35.5293 36.0003 35.5293C37.5741 35.5293 38.0975 34.209 38.8514 33.627C38.8303 33.5732 38.7982 33.5244 38.7572 33.4837C38.7161 33.443 38.6671 33.4113 38.6131 33.3906C38.6131 33.3906 37.6248 33.6231 36.0003 33.6231C34.3753 33.6231 33.387 33.3906 33.387 33.3906ZM36.0003 31.166C35.5628 31.166 35.4652 31 35.1683 31.002C34.8831 31.0039 34.3304 31.2285 34.2113 31.4375C34.2185 31.5429 34.2612 31.6427 34.3324 31.7207C34.973 31.8184 35.2601 32.1738 36.0003 32.1738C36.7386 32.1738 37.0282 31.8184 37.6658 31.7207C37.7383 31.6434 37.7818 31.5433 37.7889 31.4375C37.6698 31.2285 37.118 31.0039 36.8328 31.002C36.5355 31 36.4378 31.166 36.0003 31.166ZM71.9453 37.9727C71.8985 38.834 71.8224 39.6869 71.7168 40.5313C67.6426 41.2071 66.1836 37.5742 62.0118 37.7559C62.2609 38.6477 62.463 39.5519 62.6172 40.4649C66.0625 40.4629 67.4493 43.6817 71.2774 43.2071C71.0782 44.1914 70.8373 45.1615 70.5547 46.1173C67.5274 46.416 66.461 43.4063 62.9571 43.4883C62.9844 43.9883 63 44.4922 63 45C63 45.2832 62.9922 45.5626 62.9844 45.8419C65.9727 45.8068 66.9453 48.5685 69.793 48.4396C69.4356 49.4064 69.0385 50.353 68.6016 51.2794C66.5547 51.1661 65.8516 48.5431 62.7383 48.7521C62.6446 49.4239 62.5274 50.09 62.3828 50.7462C65.0899 50.5568 65.67 53.047 67.6055 53.2462C67.1133 54.1486 66.5834 55.0256 66.0157 55.8771C64.8672 55.2638 63.8731 53.4083 61.6993 53.2931C61.9219 52.6056 62.1172 51.907 62.2852 51.1974C60.3535 51.1974 58.1464 50.4454 56.2968 48.7599C56.8945 45.3439 51.5937 41.8672 51.5937 39.3653C51.5937 36.6504 52.9687 35.1465 52.9687 31.4843C52.9687 28.7655 51.6484 25.8183 49.6601 23.8027C49.2893 23.4242 48.875 23.0912 48.4257 22.8105C50.2538 25.0722 51.6601 27.7558 51.6601 30.8632C51.6601 34.3124 50.0546 36.1327 50.0546 39.3164C50.0546 42.4981 54.7089 45.2539 54.7089 48.5332C54.7089 49.8262 54.2968 51.086 52.9374 53.5626C55.0273 55.6505 57.7499 56.7892 59.5058 56.7892C60.0761 56.7892 60.3827 56.6173 60.5859 56.1681C60.7617 55.7814 60.9284 55.3907 61.0859 54.9962C62.9766 55.0704 63.8438 56.7911 64.8907 57.4786C64.3184 58.2482 63.7155 58.9943 63.082 59.717C62.3788 58.9377 61.4355 57.6291 60.0546 57.2658C59.8085 57.7483 59.5449 58.2209 59.2695 58.6858C60.4589 59.008 61.2734 60.2092 61.9023 60.9963C61.2245 61.6994 60.5156 62.3752 59.7831 63.0217C59.3242 62.3088 58.6074 61.3987 57.8046 60.9123C57.5097 61.3127 57.2011 61.7033 56.8827 62.0842C57.5663 62.5471 58.1679 63.3752 58.5585 64.053C57.7109 64.7365 56.832 65.3817 55.9218 65.9885C55.4726 62.3323 50.4803 59.8264 51.826 55.5823C51.3867 56.3303 50.8592 57.2678 50.8592 58.3908C50.8592 61.4631 54.1288 63.8987 54.3906 66.9514C53.7109 67.3558 53.0181 67.7385 52.3124 68.0998C52.1952 64.7444 48.7303 61.0764 48.7303 58.3205C48.7303 55.2483 52.7558 52.1622 52.7558 48.5333C52.7558 44.9044 48.1131 42.3907 48.1131 39.2052C48.1131 36.0196 50.0859 34.1875 50.0859 30.1055C50.0859 27.1153 48.6679 24.0879 46.4725 22.1542C46.1 21.819 45.6865 21.5322 45.242 21.3007C47.3123 23.7832 48.5117 26.0371 48.5117 29.4531C48.5117 33.291 46.2498 35.4219 46.2498 39.1818C46.2498 42.9396 50.8046 45.0314 50.8046 48.5333C50.8046 52.0372 46.5623 54.9923 46.5623 58.5901C46.5623 61.8635 50.3007 65.135 50.3573 69.0199C49.5389 69.3753 48.7069 69.7034 47.8592 69.9984C48.3358 66.0725 44.1268 62.0237 44.1268 58.8205C44.1268 55.3186 48.5272 52.3107 48.5272 48.5333C48.5272 44.7579 44.0545 43.0001 44.0545 39.1251C44.0545 35.25 46.8006 33.1035 46.8006 28.8223C46.8006 25.4863 45.1522 22.4843 42.744 20.6249C42.6932 20.5859 42.6444 20.5468 42.5916 20.5097C42.3651 20.3417 42.1795 20.5448 42.3397 20.7441C44.0428 22.873 44.953 25.0234 44.953 28.209C44.953 32.125 41.8006 35.3068 41.8006 39.1036C41.8006 43.5802 46.035 44.8614 46.035 48.5333C46.035 52.2073 41.4959 55.1448 41.4959 59.0451C41.4959 62.6623 45.7928 66.6761 45.0545 70.8519C44.1932 71.0745 43.3195 71.2659 42.4334 71.4261C43.2381 66.2288 39.0252 62.4944 39.0252 59.0959C39.0252 55.4123 43.7264 52.1311 43.7264 48.5333C43.7264 45.1427 40.3514 44.0333 39.91 40.5607C39.8475 40.088 39.4666 39.7364 38.9432 39.8243C38.2576 39.9493 37.3797 40.4005 36.0003 40.4005C34.6214 40.4005 33.7424 39.9493 33.0549 39.8243C32.5334 39.7364 32.1526 40.088 32.0901 40.5607C31.6487 44.0333 28.2737 45.1427 28.2737 48.5333C28.2737 52.1311 32.9729 55.4123 32.9729 59.0959C32.9729 62.4944 28.76 66.2288 29.5647 71.4261C28.6799 71.2659 27.8068 71.0745 26.9455 70.8519C26.2073 66.6761 30.5041 62.6623 30.5041 59.0451C30.5041 55.1448 25.9631 52.2073 25.9631 48.5333C25.9631 44.8614 30.1976 43.5802 30.1976 39.1036C30.1976 35.3068 27.0451 32.125 27.0451 28.209C27.0451 25.0235 27.9553 22.8731 29.6605 20.7441C29.8206 20.5448 29.6351 20.3417 29.4065 20.5097C29.3557 20.5468 29.3049 20.5859 29.2542 20.6249C26.8479 22.4844 25.1994 25.4863 25.1994 28.8223C25.1994 33.1035 27.9455 35.25 27.9455 39.1251C27.9455 43.0001 23.4729 44.7579 23.4729 48.5333C23.4729 52.3108 27.8713 55.3186 27.8713 58.8205C27.8713 62.0237 23.6643 66.0725 24.1389 69.9984C23.2912 69.7034 22.4592 69.3753 21.6408 69.0199C21.6975 65.135 25.4338 61.8635 25.4338 58.5901C25.4338 54.9924 21.1955 52.0373 21.1955 48.5333C21.1955 45.0314 25.7502 42.9396 25.7502 39.1818C25.7502 35.422 23.4885 33.291 23.4885 29.4531C23.4885 26.0371 24.6877 23.7832 26.758 21.3008C26.3129 21.5322 25.8988 21.819 25.5256 22.1543C23.3323 24.0879 21.9104 27.1153 21.9104 30.1055C21.9104 34.1875 23.8869 36.0197 23.8869 39.2052C23.8869 42.3907 19.2443 44.9044 19.2443 48.5333C19.2443 52.1623 23.2698 55.2483 23.2698 58.3205C23.2698 61.0764 19.8049 64.7445 19.6877 68.0999C18.9806 67.7386 18.2873 67.3558 17.6075 66.9515C17.8693 63.8987 21.1408 61.4631 21.1408 58.3908C21.1408 57.2678 20.6135 56.3303 20.1721 55.5823C21.5178 59.8264 16.5275 62.3323 16.0782 65.9886C15.1681 65.3831 14.2886 64.7379 13.4396 64.053C13.8322 63.3752 14.4337 62.5471 15.1154 62.0842C14.797 61.7033 14.4884 61.3127 14.1935 60.9123C13.3907 61.3987 12.6759 62.3088 12.215 63.0217C11.4825 62.3752 10.7736 61.6994 10.0958 60.9963C10.7267 60.2092 11.5392 59.008 12.7286 58.6858C12.4532 58.2209 12.1921 57.7476 11.9454 57.2658C10.5626 57.6291 9.61929 58.9377 8.91808 59.717C8.28528 58.9944 7.68111 58.2483 7.10557 57.4787C8.15438 56.7912 9.01968 55.0705 10.9122 54.9963C11.0704 55.3908 11.2371 55.7814 11.4122 56.1682C11.6173 56.6174 11.9239 56.7893 12.4923 56.7893C14.2501 56.7893 16.9728 55.6506 19.0626 53.5627C17.7013 51.0862 17.2892 49.8264 17.2892 48.5334C17.2892 45.254 21.9455 42.4982 21.9455 39.3165C21.9455 36.1329 20.3401 34.3126 20.3401 30.8633C20.3401 27.7559 21.7444 25.0723 23.5744 22.8106C23.1251 23.0913 22.7108 23.4243 22.3401 23.8028C20.3479 25.8184 19.0294 28.7656 19.0294 31.4844C19.0294 35.1466 20.4026 36.6504 20.4026 39.3654C20.4026 41.8674 15.1036 45.344 15.7032 48.76C13.8536 50.4454 11.6447 51.1974 9.71503 51.1974C9.88293 51.9083 10.0782 52.6069 10.3009 53.2931C8.12512 53.4083 7.12901 55.2638 5.9825 55.8771C5.4181 55.0236 4.88816 54.1466 4.39269 53.2462C6.3282 53.047 6.91031 50.5568 9.61543 50.7462C9.47283 50.09 9.35362 49.4239 9.25992 48.7521C6.1486 48.5431 5.4415 51.1661 3.39658 51.2794C2.96108 50.3536 2.56461 49.407 2.20718 48.4396C5.0548 48.5704 6.0255 45.8068 9.01382 45.8419C9.00403 45.5626 9.00012 45.2833 9.00012 45.0001C9.00012 44.4923 9.01572 43.9884 9.04312 43.4883C5.5392 43.4063 4.47279 46.4161 1.44347 46.1173C1.16413 45.1622 0.923898 44.1921 0.722765 43.2071C4.54889 43.6817 5.9376 40.4629 9.38103 40.4649C9.53401 39.5515 9.73678 38.6472 9.98843 37.7559C5.8146 37.5742 4.35559 41.2071 0.283255 40.5313C0.175825 39.6875 0.101625 38.834 0.054725 37.9727C4.79103 38.5039 6.56648 34.6094 10.879 35.086C11.2835 34.0602 11.7546 33.062 12.2892 32.0977C6.88288 31.1485 5.04697 35.668 0.015625 34.9746C0.558625 15.5663 16.4611 -0.000244141 36.0003 -0.000244141C55.539 -0.000244141 71.4414 15.5663 71.9844 34.9746C66.9512 35.668 65.1153 31.1485 59.7089 32.0977C60.2442 33.062 60.7159 34.0602 61.121 35.086C65.4336 34.6094 67.2071 38.5039 71.9453 37.9727ZM20.5237 22.8749C17.8751 21.7909 14.6661 22.0409 11.9239 23.8027C11.5001 21.2519 10.1173 18.9882 8.14469 17.621C7.87318 17.4316 7.58999 17.6112 7.61338 17.9277C8.03138 23.3144 4.88097 27.9941 1.00784 32.1055C5.00003 33.3047 8.39859 28.166 13.5743 29.961C15.4363 27.1925 17.792 24.7905 20.5237 22.8749ZM36.0003 19.6171C32.6585 19.6171 29.8596 21.5077 29.1253 23.9491C29.0687 24.1366 29.1449 24.2577 29.3616 24.1601C30.0021 23.8847 30.6938 23.7482 31.3909 23.7597C32.7542 23.7597 33.9554 24.2616 34.6644 25.1308C34.9808 26.1679 35.0062 27.6698 34.6507 28.5253C34.0902 28.4003 33.887 27.9648 33.3402 27.9648C32.7913 27.9648 32.3675 28.3515 31.4378 28.3515C30.5081 28.3515 30.3988 27.912 29.7894 27.912C29.0706 27.912 28.9378 28.6523 28.9378 29.4882C28.9378 33.211 32.3597 38.336 36.0003 38.336C39.6406 38.336 43.0624 33.211 43.0624 29.4882C43.0624 28.6523 42.8906 27.9374 42.1386 27.8398C41.7656 28.1093 41.4218 28.3515 40.5624 28.3515C39.6327 28.3515 39.3769 27.9648 38.828 27.9648C38.1679 27.9648 38.2342 29.3593 37.4471 29.4374C36.9266 28.1796 36.8992 26.5683 37.3348 25.1308C38.0448 24.2616 39.2459 23.7597 40.6093 23.7597C41.3058 23.7476 41.997 23.8841 42.6367 24.1601C42.8534 24.2577 42.9296 24.1366 42.8749 23.9491C42.1405 21.5077 39.3416 19.6171 36.0003 19.6171ZM41.3201 24.9589C40.5194 24.9589 39.5799 25.205 38.9881 25.8632C38.9213 26.0672 38.9303 26.2884 39.0135 26.4862C40.4666 25.9882 41.7498 25.9687 42.367 26.6601C42.6971 26.3612 42.8027 26.0898 42.8027 25.7773C42.8026 25.2929 42.3123 24.9589 41.3201 24.9589ZM29.633 26.6601C30.3323 25.9589 31.8108 25.9882 33.344 26.5546C33.4104 25.7909 32.0451 24.9589 30.6799 24.9589C29.6877 24.9589 29.1955 25.2929 29.1955 25.7773C29.1955 26.0898 29.301 26.3612 29.633 26.6601ZM52.662 14.0566C50.0234 14.2441 47.7304 15.1503 45.8788 16.6601C46.6331 14.5131 47.6583 12.4712 48.9296 10.5838C45.5742 10.9393 42.7636 12.1697 40.7147 14.2675L39.1092 10.0623L42.6717 6.91581L37.9022 6.5799L36.0003 2.14627L34.098 6.5799L29.3283 6.91581L32.889 10.0623L31.2854 14.2675C29.2346 12.1697 26.426 10.9393 23.0686 10.5838C24.3397 12.4716 25.3656 14.5134 26.1213 16.6601C24.2678 15.1503 21.9768 14.2441 19.3362 14.0566C20.9182 16.0917 22.3225 18.2616 23.3615 20.5917C23.4787 20.8554 23.7307 20.9413 24.0041 20.8066C27.7335 18.9604 31.8387 17.9999 36 17.9999C40.1614 17.9999 44.2666 18.9604 47.996 20.8066C48.2695 20.9413 48.5195 20.8554 48.6367 20.5917C49.6757 18.2616 51.0781 16.0917 52.662 14.0566ZM58.4218 29.961C63.5996 28.166 66.9981 33.3047 70.9903 32.1055C67.1172 27.9942 63.9688 23.3145 64.3828 17.9277C64.4102 17.6112 64.125 17.4316 63.8555 17.621C61.8828 18.9882 60.5 21.2519 60.0742 23.8028C57.332 22.0409 54.1249 21.7909 51.4745 22.875C54.206 24.79 56.5612 27.1921 58.4218 29.961Z" fill="#006241"/>
<path d="M57.835 67.919C58.0568 67.919 58.2736 67.9847 58.4581 68.108C58.6425 68.2312 58.7862 68.4064 58.8711 68.6114C58.9559 68.8163 58.9781 69.0418 58.9348 69.2593C58.8914 69.4769 58.7846 69.6767 58.6277 69.8335C58.4708 69.9903 58.2709 70.097 58.0533 70.1402C57.8357 70.1834 57.6102 70.1611 57.4054 70.0761C57.2005 69.9911 57.0254 69.8473 56.9023 69.6628C56.7791 69.4783 56.7135 69.2614 56.7136 69.0396C56.7129 68.8922 56.7415 68.7461 56.7976 68.6097C56.8537 68.4734 56.9363 68.3496 57.0405 68.2454C57.1448 68.1411 57.2687 68.0586 57.4051 68.0026C57.5414 67.9466 57.6876 67.9182 57.835 67.919ZM57.835 69.9987C58.0261 70.0061 58.215 69.9561 58.3775 69.8553C58.54 69.7545 58.6687 69.6074 58.747 69.433C58.8253 69.2585 58.8496 69.0646 58.8169 68.8762C58.7842 68.6878 58.6959 68.5134 58.5633 68.3756C58.4308 68.2377 58.2601 68.1427 58.0731 68.1025C57.8861 68.0624 57.6914 68.0792 57.514 68.1505C57.3366 68.2219 57.1845 68.3447 57.0774 68.5031C56.9703 68.6615 56.913 68.8483 56.9128 69.0396C56.9093 69.1634 56.9304 69.2867 56.975 69.4022C57.0196 69.5178 57.0868 69.6233 57.1727 69.7126C57.2585 69.8019 57.3613 69.8732 57.475 69.9223C57.5888 69.9714 57.7111 69.9974 57.835 69.9987ZM57.4072 68.3833H57.9024C58.2122 68.3833 58.3587 68.5063 58.3587 68.7569C58.3587 68.9949 58.2085 69.0949 58.0129 69.1158L58.3902 69.694H58.1756L57.8196 69.1304H57.6065V69.694H57.4073L57.4072 68.3833ZM57.6064 68.9674H57.8123C57.9888 68.9674 58.1609 68.9587 58.1609 68.747C58.1609 68.5661 58.0042 68.5459 57.8679 68.5459H57.6065L57.6064 68.9674Z" fill="#006241"/>
</g>
<defs>
<clipPath id="clip0_1_70">
<rect width="72" height="72" fill="white"/>
</clipPath>
</defs>
</svg>
