<svg width="24" height="22" viewBox="0 0 24 22" fill="none" xmlns="http://www.w3.org/2000/svg">
<g clip-path="url(#clip0_18_27)">
<path d="M11.9999 0.194519C14.5202 0.194164 16.9767 0.987343 19.0208 2.46155C21.065 3.93577 22.5931 6.01617 23.3884 8.40769C24.1838 10.7992 24.2059 13.3804 23.4518 15.7853C22.6976 18.1901 21.2055 20.2964 19.1869 21.8055C17.7643 17.3982 15.2846 15.1945 11.7479 15.1945C8.23992 15.1945 5.88125 17.3612 4.67192 21.6945C2.68943 20.1646 1.23525 18.0527 0.51312 15.6549C-0.209008 13.2571 -0.1629 10.6935 0.644986 8.32316C1.45287 5.95287 2.98205 3.8947 5.01827 2.43703C7.05449 0.979362 9.49572 0.195237 11.9999 0.194519ZM11.9999 4.19452C11.2088 4.19452 10.4354 4.42911 9.77764 4.86864C9.11984 5.30817 8.60715 5.93288 8.3044 6.66379C8.00165 7.39469 7.92244 8.19896 8.07678 8.97488C8.23112 9.7508 8.61208 10.4635 9.17149 11.0229C9.7309 11.5824 10.4436 11.9633 11.2196 12.1177C11.9955 12.272 12.7997 12.1928 13.5307 11.89C14.2616 11.5873 14.8863 11.0746 15.3258 10.4168C15.7653 9.759 15.9999 8.98564 15.9999 8.19452C15.9999 7.13365 15.5785 6.11624 14.8283 5.36609C14.0782 4.61595 13.0608 4.19452 11.9999 4.19452Z" fill="#00754A"/>
</g>
<defs>
<clipPath id="clip0_18_27">
<rect width="24" height="21.611" fill="white" transform="translate(-6.10352e-05 0.194519)"/>
</clipPath>
</defs>
</svg>
